<svg xmlns="http://www.w3.org/2000/svg" viewBox="0 0 64 64" role="img" aria-label="Cabinet Médical Dr Houari Adil">
  <defs>
    <linearGradient id="g" x1="0" y1="0" x2="1" y2="1">
      <stop offset="0" stop-color="#1FA3A3"/>
      <stop offset="1" stop-color="#70C7C7"/>
    </linearGradient>
  </defs>
  <rect x="6" y="6" width="52" height="52" rx="14" fill="url(#g)"/>
  <path d="M46 33.5a5.5 5.5 0 0 1-5.5 5.5h-3.4a9.2 9.2 0 0 1-8.2 5h-1.8A6.1 6.1 0 0 1 21 37.9v-1.6a5.7 5.7 0 0 1 5.7-5.7h2v3h-2a2.7 2.7 0 0 0-2.7 2.7v1.6A3.1 3.1 0 0 0 27.1 41h1.8a6.2 6.2 0 0 0 6-4.2A6.5 6.5 0 0 0 32 29V21.5A4.5 4.5 0 0 1 36.5 17H41a6 6 0 0 1 6 6v10.5Zm-3 0V23a3 3 0 0 0-3-3h-3.5a1.5 1.5 0 0 0-1.5 1.5V29a3.5 3.5 0 0 0 3.5 3.5H43Z" fill="#fff" opacity="0.95"/>
</svg>
